<svg xmlns="http://www.w3.org/2000/svg" width="30" height="30.065" viewBox="0 0 30 30.065"><defs><style>.a{fill:#98acf8;}.b{fill:#778cbc;}.c{fill:#b6cdff;}.d{fill:#f6f4e6;}.e{fill:#d2d2d2;}.f{fill:#f05454;}.g{fill:#e89191;}.h{fill:#ad4545;}.i{fill:#214252;}</style></defs><g transform="translate(-5.078 -5.019)"><g transform="translate(15.409 5.669)"><rect class="a" width="4.444" height="11.986" rx="0.5" transform="translate(0 9.983)"/><rect class="a" width="4.444" height="16.476" rx="0.5" transform="translate(4.394 5.492)"/><rect class="a" width="4.444" height="21.968" rx="0.5" transform="translate(8.839 0)"/></g><path class="b" d="M29.867,24.1H28.73a.279.279,0,0,1,.279.279V35.81a.279.279,0,0,1-.279.279h1.136a.279.279,0,0,0,.279-.279V24.381A.279.279,0,0,0,29.867,24.1Z" transform="translate(-10.474 -8.45)"/><path class="c" d="M24.009,24.1h1.136a.279.279,0,0,0-.279.279V35.81a.279.279,0,0,0,.279.279H24.009a.279.279,0,0,1-.279-.279V24.381A.279.279,0,0,1,24.009,24.1Z" transform="translate(-8.26 -8.45)"/><path class="b" d="M37.867,16.043H36.73a.279.279,0,0,1,.279.279V32.241a.279.279,0,0,1-.279.279h1.136a.279.279,0,0,0,.279-.279V16.322a.279.279,0,0,0-.279-.279Z" transform="translate(-14.016 -4.882)"/><path class="c" d="M32.009,16.043h1.136a.279.279,0,0,0-.279.279V32.241a.279.279,0,0,0,.279.279H32.009a.279.279,0,0,1-.279-.279V16.322a.279.279,0,0,1,.279-.279Z" transform="translate(-11.802 -4.882)"/><path class="b" d="M45.867,6.186H44.73a.279.279,0,0,1,.279.279V27.876a.279.279,0,0,1-.279.279h1.136a.279.279,0,0,0,.279-.279V6.465a.279.279,0,0,0-.279-.279Z" transform="translate(-17.559 -0.517)"/><path class="c" d="M40.009,6.186h1.136a.279.279,0,0,0-.279.279V27.876a.279.279,0,0,0,.279.279H40.009a.279.279,0,0,1-.279-.279V6.465a.279.279,0,0,1,.279-.279Z" transform="translate(-15.345 -0.517)"/><path class="d" d="M35.115,42.626,23.18,49.769a1.727,1.727,0,0,1-1.282.212l-9.322-2.039a1.814,1.814,0,0,0-.864.028l-3,.858L6.81,41.6c.357-.089,4.847-1.053,6.837-1.477a3.572,3.572,0,0,1,1.844.084l3.973,1.226a3.533,3.533,0,0,0,1.081.167s3.672-.123,5.388,0a1.26,1.26,0,0,1,1.031,1.053l.318-.145.49-.223,4.184-1.911a1.762,1.762,0,0,1,1.833.223C34.747,41.361,36.162,42,35.115,42.626Z" transform="translate(-0.767 -15.508)"/><path class="e" d="M45.011,40.736a1.766,1.766,0,0,0-1.834-.226l-.448.2c.01.008.021.014.031.022.956.762,2.37,1.4,1.324,2.029L32.15,49.908h0l.968.212a1.755,1.755,0,0,0,1.283-.212l11.934-7.143C47.381,42.133,45.967,41.5,45.011,40.736Z" transform="translate(-11.988 -15.646)"/><rect class="f" width="9.154" height="2.424" rx="0.2" transform="translate(7.827 24.881) rotate(75.227)"/><path class="g" d="M6.855,41.314a.111.111,0,0,1,.079-.136l1.278-.337-.016-.06A.111.111,0,0,0,8.06,40.7l-2.129.561a.111.111,0,0,0-.079.136l2.275,8.637a.111.111,0,0,0,.136.079l.851-.224Z" transform="translate(-0.341 -15.8)"/><path class="h" d="M8.2,40.782A.111.111,0,0,0,8.06,40.7l-2.129.561a.111.111,0,0,0-.079.136l.041.155,1.443-.38a.111.111,0,0,1,.136.079l2.234,8.482.686-.181a.111.111,0,0,0,.079-.136Z" transform="translate(-0.341 -15.8)"/><path class="e" d="M38.291,46.722a16.579,16.579,0,0,1-4.652.457H33.36a15.6,15.6,0,0,0,4.374-.457,2.466,2.466,0,0,0,1.354-1.716,2.951,2.951,0,0,0-.05-.713l.49-.223A2.172,2.172,0,0,1,38.291,46.722Z" transform="translate(-12.524 -17.292)"/><path class="e" d="M37.348,45.537a5.08,5.08,0,0,1-1.967.311c-.669.047-1.337.065-2.006.065H32.9c.635,0,1.27-.018,1.906-.065a5.108,5.108,0,0,0,1.972-.311,1.141,1.141,0,0,0,.63-1.325c-.128-.452-.529-.563-.936-.581h.089c.513-.012,1.237-.059,1.421.581A1.139,1.139,0,0,1,37.348,45.537Z" transform="translate(-12.321 -17.095)"/><path class="i" d="M33.177,24.666c-1.293-1.022-2.412-.3-3.884.373V5.855a.835.835,0,0,0-.836-.836h-3.9a.835.835,0,0,0-.836.836v4.736H20.1a.835.835,0,0,0-.836.836v3.622H15.643a.835.835,0,0,0-.836.836v8.324c-1.468-.44-1.782-.233-6.257.735-.149-.505-.5-.66-.847-.568l-2.128.563a.661.661,0,0,0-.474.813c2.361,8.96,2.129,8.077,2.273,8.636a.672.672,0,0,0,.819.479l2.128-.563a.67.67,0,0,0,.474-.819l-.111-.418c.714-.2-.361-.335,10.13,1.961a2.285,2.285,0,0,0,1.688-.279c12.8-7.655,12.552-7.292,12.576-8.062.029-.853-1.072-1.366-1.9-2.023ZM24.836,6.134h3.343V25.551l-1.867.852a1.785,1.785,0,0,0-1.477-.869Zm-4.457,5.572h3.343V25.5c-1.075-.017-2.786.008-3.343.028Zm-4.457,4.457h3.343v9.366a21.679,21.679,0,0,1-3.343-.975ZM6.288,25.9l1.27-.329c.322,1.212,1.756,6.669,2.045,7.773l-1.265.334c-.567-2.162-1.464-5.549-2.05-7.778Zm15.64,7.9a1.2,1.2,0,0,1-.875.145c-10.519-2.3-9.6-2.242-10.653-1.95L8.829,26.019c5.886-1.242,3.842-1.3,9.505.451a4.338,4.338,0,0,0,.93.162v.006c4.257,0,5.7-.231,6.138.216a.931.931,0,0,1,.014,1.172c-.878,1.089-6.885.744-8.3.651a.556.556,0,1,0-.072,1.109c.558.046,6.282.367,8.191-.345A2.073,2.073,0,0,0,26.6,27.5l4.63-2.112a1.193,1.193,0,0,1,1.254.156c.813.637,1.6.982,1.231,1.2-1.562.942-11.64,6.968-11.784,7.054Z" transform="translate(0 0)"/></g></svg>