<svg xmlns="http://www.w3.org/2000/svg" width="30" height="32.045" viewBox="0 0 30 32.045"><defs><style>.a{fill:#f6f4e6;}.b{fill:#d2d2d2;}.c{fill:#fff;}.d{fill:#98acf8;}.e{fill:#b6cdff;}.f{fill:#f05454;}.g{fill:#e89191;}.h{fill:#ad4545;}.i{fill:#778cbc;}.j{fill:#214252;}</style></defs><g transform="translate(-7 -5)"><rect class="a" width="23.737" height="30.858" rx="2" transform="translate(7.593 5.593)"/><path class="b" d="M44.984,6.5H43.5a1.176,1.176,0,0,1,1.187,1.164V35.6A1.176,1.176,0,0,1,43.5,36.765h1.484A1.176,1.176,0,0,0,46.17,35.6V7.664A1.176,1.176,0,0,0,44.984,6.5Z" transform="translate(-14.84 -0.61)"/><path class="c" d="M9.187,6.5H10.67A1.176,1.176,0,0,0,9.484,7.664V35.6a1.176,1.176,0,0,0,1.187,1.164H9.187A1.176,1.176,0,0,1,8,35.6V7.664A1.176,1.176,0,0,1,9.187,6.5Z" transform="translate(-0.407 -0.61)"/><path class="d" d="M0,0H4.217V13.253H0Z" transform="translate(29.791 17.808) rotate(45)"/><path class="e" d="M39.819,27.462l2.13,2.13.021-.02L38.987,26.59l-9.371,9.371.852.852Z" transform="translate(-9.195 -8.778)"/><path class="f" d="M51.683,23.42a2.119,2.119,0,0,1-.621,1.494L48.846,27.13l-.061.068L45.8,24.211l2.278-2.278a2.111,2.111,0,0,1,3.6,1.487Z" transform="translate(-15.777 -6.634)"/><path class="g" d="M48.915,22.8a2.1,2.1,0,0,1,2.524-.337,2.085,2.085,0,0,0-.376-.533,2.108,2.108,0,0,0-2.982,0L45.8,24.212l.852.852Z" transform="translate(-15.775 -6.632)"/><path class="f" d="M27.03,47.615l3.358-.73a.3.3,0,0,0,.147-.5l-2.628-2.628a.3.3,0,0,0-.5.147l-.73,3.358a.3.3,0,0,0,.353.353Z" transform="translate(-7.998 -15.722)"/><path class="h" d="M30.487,47.679l-.686-.686-2.9.63-.2.923a.341.341,0,0,0,.406.406l3.212-.7a.341.341,0,0,0,.169-.574Z" transform="translate(-8.007 -17.073)"/><path class="g" d="M27.759,47.273l.823-2.819-.608-.608a.341.341,0,0,0-.574.169l-.7,3.212a.341.341,0,0,0,.406.406l.668-.145A.326.326,0,0,1,27.759,47.273Z" transform="translate(-8.007 -15.753)"/><path class="i" d="M40.451,26.59l-.271.271L42.315,29l-9.1,9.1.846.846,9.371-9.371Z" transform="translate(-10.658 -8.778)"/><path class="h" d="M53.193,23.463a2.119,2.119,0,0,1-.621,1.494l-2.217,2.217-.839-.839L51.256,24.6a2.554,2.554,0,0,0,.341-3.171,2.112,2.112,0,0,1,1.6,2.039Z" transform="translate(-17.286 -6.678)"/><g transform="translate(11.747 9.747)"><path class="b" d="M22.121,29.187H15.593a.593.593,0,1,1,0-1.187h6.528a.593.593,0,0,1,0,1.187Z" transform="translate(-15 -19.099)"/><path class="b" d="M15.593,23H31.022a.593.593,0,0,1,0,1.187H15.593a.593.593,0,1,1,0-1.187Z" transform="translate(-15 -17.066)"/><path class="b" d="M15.593,18H31.022a.593.593,0,0,1,0,1.187H15.593a.593.593,0,1,1,0-1.187Z" transform="translate(-15 -15.033)"/><path class="b" d="M15.593,13H31.022a.593.593,0,0,1,0,1.187H15.593a.593.593,0,1,1,0-1.187Z" transform="translate(-15 -13)"/><path class="b" d="M31.591,43.618c-.2.2-.22.261-.487.326-.089.018-3.638.8-3.727.8l-.588.587a.579.579,0,0,0,.855.018l.605-.605c.089,0,3.638-.783,3.727-.8.267-.065.291-.131.487-.326L38,38.082a.739.739,0,0,1,.089-.113l.694-.694V36.42Z" transform="translate(-19.794 -22.522)"/></g><path class="j" d="M21.121,29.187H14.593a.593.593,0,1,1,0-1.187h6.528a.593.593,0,0,1,0,1.187Z" transform="translate(-2.846 -9.351)"/><path class="j" d="M14.593,23H30.022a.593.593,0,0,1,0,1.187H14.593a.593.593,0,1,1,0-1.187Z" transform="translate(-2.846 -7.318)"/><path class="j" d="M14.593,18H30.022a.593.593,0,0,1,0,1.187H14.593a.593.593,0,1,1,0-1.187Z" transform="translate(-2.846 -5.285)"/><path class="j" d="M14.593,13H30.022a.593.593,0,1,1,0,1.187H14.593a.593.593,0,1,1,0-1.187Z" transform="translate(-2.846 -3.253)"/><path class="j" d="M35.983,19.248l-.4.409-.427-.427.374-.374a2.773,2.773,0,0,0-3.6-4.2V6.78A1.785,1.785,0,0,0,30.144,5H8.78A1.785,1.785,0,0,0,7,6.78V35.265a1.786,1.786,0,0,0,1.78,1.78H30.144a1.786,1.786,0,0,0,1.78-1.78V24.992l4.9-4.9a.6.6,0,1,0-.843-.843ZM30.737,24.5l-.694.694a.589.589,0,0,0,.694.938v9.133a.6.6,0,0,1-.593.593H8.78a.6.6,0,0,1-.593-.593V6.78a.6.6,0,0,1,.593-.593H30.144a.6.6,0,0,1,.593.593V15.8c-2.491,2.491-11.109,11.109-11.115,11.121-.168.168-.29.254-.332.481-.014.06-.807,3.671-.807,3.733l-.6.6a.6.6,0,1,0,.843.843l.605-.605c.092,0,3.64-.78,3.727-.8.27-.063.291-.131.487-.326l7.192-7.2ZM20.144,28.416l1.9,1.9c-1.962.435-.838.188-2.427.528C19.944,29.309,19.818,29.889,20.144,28.416Zm3.015,1.139L20.91,27.307c.184-.193,8.557-8.563,8.747-8.753L31.906,20.8c-.33.328-8.467,8.459-8.747,8.753Zm8.765-6.243v-.855c1.994-1.994,1.472-1.474,2.391-2.386l.427.421Zm2.759-5.293c-.995.995-.56.559-1.935,1.94h-.006l-2.237-2.243c.345-.353.01-.016,1.935-1.94a1.586,1.586,0,1,1,2.243,2.243Z"/></g></svg>