<svg xmlns="http://www.w3.org/2000/svg" width="39.294" height="39.294" viewBox="0 0 39.294 39.294"><defs><style>.a{fill:#fcfcfc;}</style></defs><path class="a" d="M19.647,0A19.647,19.647,0,1,0,39.294,19.647,19.647,19.647,0,0,0,19.647,0Zm4.979,17.786L24.3,20.523a.517.517,0,0,1-.517.46H20.94V29.1a.367.367,0,0,1-.362.37h-2.9a.367.367,0,0,1-.362-.372l.016-8.115H15.182a.517.517,0,0,1-.517-.517V17.731a.517.517,0,0,1,.517-.517H17.32V14.562c0-3.069,1.828-4.739,4.5-4.739h2.19a.517.517,0,0,1,.517.517v2.3a.517.517,0,0,1-.517.517H22.666c-1.453.023-1.727.719-1.727,1.758v2.288h3.185a.517.517,0,0,1,.5.579Z"/></svg>