<svg xmlns="http://www.w3.org/2000/svg" width="30" height="26.608" viewBox="0 0 30 26.608"><defs><style>.a{fill:#f6f4e6;}.b{fill:#fff;}.c{fill:#d2d2d2;}.d{fill:#98acf8;}.e{fill:#b6cdff;}.f{fill:#778cbc;}.g{fill:#214252;}</style></defs><g transform="translate(-5 -8.048)"><path class="a" d="M8,9.048H34.667V26.826H8Z" transform="translate(-1.333 -0.444)"/><path class="b" d="M8,9.048H9.111V26.826H8Z" transform="translate(-1.333 -0.444)"/><g transform="translate(9.833 8.604)"><path class="c" d="M54,9.048h1.111V26.826H54Z" transform="translate(-31.611 -9.048)"/><path class="c" d="M16.2,34.444H14.533a.834.834,0,0,1-.833-.833V30.833A.834.834,0,0,1,14.533,30H16.2a.834.834,0,0,1,.833.833v2.778A.834.834,0,0,1,16.2,34.444Zm-1.389-1.111h1.111V31.111H14.811Z" transform="translate(-13.7 -18.36)"/><path class="c" d="M24.2,32.667H22.533a.834.834,0,0,1-.833-.833v-5A.834.834,0,0,1,22.533,26H24.2a.834.834,0,0,1,.833.833v5a.834.834,0,0,1-.833.833Zm-1.389-1.111h1.111V27.111H22.811Z" transform="translate(-17.256 -16.582)"/><path class="c" d="M32.2,30.889H30.533a.834.834,0,0,1-.833-.833V22.833A.834.834,0,0,1,30.533,22H32.2a.834.834,0,0,1,.833.833v7.222a.834.834,0,0,1-.833.833Zm-1.389-1.111h1.111V23.111H30.811Z" transform="translate(-20.811 -14.804)"/><path class="c" d="M40.2,28.222H38.533a.834.834,0,0,1-.833-.833V16.833A.834.834,0,0,1,38.533,16H40.2a.834.834,0,0,1,.833.833V27.389a.834.834,0,0,1-.833.833Zm-1.389-1.111h1.111v-10H38.811Z" transform="translate(-24.367 -12.138)"/><path class="c" d="M48.2,26.444H46.533a.834.834,0,0,1-.833-.833V12.833A.834.834,0,0,1,46.533,12H48.2a.834.834,0,0,1,.833.833V25.611a.834.834,0,0,1-.833.833Zm-1.389-1.111h1.111V13.111H46.811Z" transform="translate(-27.922 -10.36)"/></g><rect class="d" width="2.222" height="3.333" rx="0.5" transform="translate(10 20.826)"/><rect class="d" width="2.222" height="5.556" rx="0.5" transform="translate(14.444 18.604)"/><rect class="d" width="2.222" height="7.778" rx="0.5" transform="translate(18.889 16.381)"/><rect class="d" width="2.222" height="11.111" rx="0.5" transform="translate(23.333 13.048)"/><rect class="d" width="2.222" height="13.333" rx="0.5" transform="translate(27.778 10.826)"/><path class="e" d="M14.778,34.1V31.326a.278.278,0,0,1,.278-.278h-.778a.278.278,0,0,0-.278.278V34.1a.278.278,0,0,0,.278.278h.778A.278.278,0,0,1,14.778,34.1Z" transform="translate(-4 -10.222)"/><path class="e" d="M22.778,32.326v-5a.278.278,0,0,1,.278-.278h-.778a.278.278,0,0,0-.278.278v5a.278.278,0,0,0,.278.278h.778A.278.278,0,0,1,22.778,32.326Z" transform="translate(-7.556 -8.444)"/><path class="e" d="M30.778,30.548V23.326a.278.278,0,0,1,.278-.278h-.778a.278.278,0,0,0-.278.278v7.222a.278.278,0,0,0,.278.278h.778A.278.278,0,0,1,30.778,30.548Z" transform="translate(-11.111 -6.667)"/><path class="e" d="M38.778,27.882V17.326a.278.278,0,0,1,.278-.278h-.778a.278.278,0,0,0-.278.278V27.882a.278.278,0,0,0,.278.278h.778A.278.278,0,0,1,38.778,27.882Z" transform="translate(-14.667 -4)"/><path class="e" d="M46.778,26.1V13.326a.278.278,0,0,1,.278-.278h-.778a.278.278,0,0,0-.278.278V26.1a.278.278,0,0,0,.278.278h.778A.278.278,0,0,1,46.778,26.1Z" transform="translate(-18.222 -2.222)"/><path class="f" d="M16.833,31.048H16a.278.278,0,0,1,.278.278V34.1a.278.278,0,0,1-.278.278h.833a.278.278,0,0,0,.278-.278V31.326a.278.278,0,0,0-.278-.278Z" transform="translate(-4.889 -10.222)"/><path class="f" d="M24.833,27.048H24a.278.278,0,0,1,.278.278v5A.278.278,0,0,1,24,32.6h.833a.278.278,0,0,0,.278-.278v-5A.278.278,0,0,0,24.833,27.048Z" transform="translate(-8.444 -8.444)"/><path class="f" d="M32.833,23.048H32a.278.278,0,0,1,.278.278v7.222a.278.278,0,0,1-.278.278h.833a.278.278,0,0,0,.278-.278V23.326A.278.278,0,0,0,32.833,23.048Z" transform="translate(-12 -6.667)"/><path class="f" d="M40.833,17.048H40a.278.278,0,0,1,.278.278V27.882a.278.278,0,0,1-.278.278h.833a.278.278,0,0,0,.278-.278V17.326a.278.278,0,0,0-.278-.278Z" transform="translate(-15.556 -4)"/><path class="f" d="M48.833,13.048H48a.278.278,0,0,1,.278.278V26.1a.278.278,0,0,1-.278.278h.833a.278.278,0,0,0,.278-.278V13.326a.278.278,0,0,0-.278-.278Z" transform="translate(-19.111 -2.222)"/><path class="g" d="M15.5,34.493H13.833A.834.834,0,0,1,13,33.659V30.882a.834.834,0,0,1,.833-.833H15.5a.834.834,0,0,1,.833.833v2.778a.834.834,0,0,1-.833.833Zm-1.389-1.111h1.111V31.159H14.111Z" transform="translate(-3.556 -9.778)"/><path class="g" d="M23.5,32.715H21.833A.834.834,0,0,1,21,31.882v-5a.834.834,0,0,1,.833-.833H23.5a.834.834,0,0,1,.833.833v5A.834.834,0,0,1,23.5,32.715ZM22.111,31.6h1.111V27.159H22.111Z" transform="translate(-7.111 -8)"/><path class="g" d="M31.5,30.937H29.833A.834.834,0,0,1,29,30.1V22.882a.834.834,0,0,1,.833-.833H31.5a.834.834,0,0,1,.833.833V30.1A.834.834,0,0,1,31.5,30.937Zm-1.389-1.111h1.111V23.159H30.111Z" transform="translate(-10.667 -6.222)"/><path class="g" d="M39.5,28.27H37.833A.834.834,0,0,1,37,27.437V16.882a.834.834,0,0,1,.833-.833H39.5a.834.834,0,0,1,.833.833V27.437A.834.834,0,0,1,39.5,28.27Zm-1.389-1.111h1.111v-10H38.111Z" transform="translate(-14.222 -3.556)"/><path class="g" d="M47.5,26.493H45.833A.834.834,0,0,1,45,25.659V12.882a.834.834,0,0,1,.833-.833H47.5a.834.834,0,0,1,.833.833V25.659A.834.834,0,0,1,47.5,26.493Zm-1.389-1.111h1.111V13.159H46.111Z" transform="translate(-17.778 -1.778)"/><path class="g" d="M34.444,25.826h-.556V9.159h.556a.556.556,0,0,0,0-1.111H5.556a.556.556,0,1,0,0,1.111h.556V25.826H5.556a.556.556,0,1,0,0,1.111h7.778L9.778,33.848a.555.555,0,1,0,.989.506l3.817-7.417H25.417l3.817,7.417a.555.555,0,1,0,.989-.506l-3.556-6.911h7.778a.556.556,0,1,0,0-1.111Zm-27.222,0V9.159H32.778V25.826Z"/></g></svg>