<svg xmlns="http://www.w3.org/2000/svg" width="30" height="43.333" viewBox="0 0 30 43.333"><defs><style>.a{fill:#f6f4e6;}.b{fill:#d2d2d2;}.c{fill:#fff;}.d{fill:#98acf8;}.e{fill:#778cbc;}.f{fill:#f05454;}.g{fill:#b6cdff;}.h{fill:#f29e9e;}.i{fill:#214252;}</style></defs><g transform="translate(-14 -6)"><rect class="a" width="28.333" height="40" rx="2" transform="translate(14.833 8.5)"/><path class="b" d="M46.852,9.5H45a1.562,1.562,0,0,1,1.481,1.632v35.9A1.562,1.562,0,0,1,45,48.667h1.852a1.562,1.562,0,0,0,1.481-1.632v-35.9A1.562,1.562,0,0,0,46.852,9.5Z" transform="translate(-5.167 -0.583)"/><path class="c" d="M16.481,9.5h1.852a1.562,1.562,0,0,0-1.481,1.632v35.9a1.562,1.562,0,0,0,1.481,1.632H16.481A1.562,1.562,0,0,1,15,47.035v-35.9A1.562,1.562,0,0,1,16.481,9.5Z" transform="translate(-0.166 -0.583)"/><path class="b" d="M31.65,17.52A6.771,6.771,0,1,0,38.417,24.3,6.771,6.771,0,0,0,31.65,17.52ZM28.892,20l1.375,3.2-3.425-.6a5,5,0,0,1,2.05-2.6ZM31.65,29.4a5.111,5.111,0,0,1-5.108-5.15c.2.034,4.634.825,4.833.825a1,1,0,0,0,.917-1.392l-1.867-4.333A5.1,5.1,0,1,1,31.65,29.4Z" transform="translate(-1.812 -1.92)"/><path class="d" d="M24.964,23.434l5.545.97a.167.167,0,0,0,.182-.23L28.463,19a5.938,5.938,0,1,1-3.588,5.454C24.875,24.108,24.964,23.434,24.964,23.434Z" transform="translate(-1.812 -2.086)"/><path class="e" d="M31.817,18.52a5.951,5.951,0,0,0-.916.078,5.93,5.93,0,0,1,0,11.719,5.934,5.934,0,1,0,.916-11.8Z" transform="translate(-2.817 -2.087)"/><path class="f" d="M24.875,23.609a5.947,5.947,0,0,1,3.5-4.431L30.6,24.349a.167.167,0,0,1-.182.23Z" transform="translate(-1.813 -2.196)"/><path class="g" d="M26.375,25.44c0-.211.032-.538.058-.766l-1.469-.257s-.089.674-.089,1.023a5.9,5.9,0,0,0,6.687,5.885,5.935,5.935,0,0,1-5.187-5.885Z" transform="translate(-1.812 -3.07)"/><path class="h" d="M30.6,24.348l-4.228-.74a5.932,5.932,0,0,1,2.3-3.732l-.3-.7a5.946,5.946,0,0,0-3.5,4.431l5.546.97a.167.167,0,0,0,.182-.23Z" transform="translate(-1.812 -2.196)"/><g transform="translate(19.583 8.5)"><path class="b" d="M40.083,40.667H21.958a.833.833,0,0,1,0-1.667H40.083a.833.833,0,0,1,0,1.667Z" transform="translate(-20.771 -14)"/><path class="b" d="M40.083,46.167H21.958a.833.833,0,1,1,0-1.667H40.083a.833.833,0,0,1,0,1.667Z" transform="translate(-20.771 -14.917)"/><path class="b" d="M40.083,51.667H21.958a.833.833,0,1,1,0-1.667H40.083a.833.833,0,0,1,0,1.667Z" transform="translate(-20.771 -15.833)"/><path class="b" d="M22.367,9v1.667a.833.833,0,0,1-1.667,0V9Z" transform="translate(-20.7 -9)"/><path class="b" d="M29.7,9v1.667a.833.833,0,1,1-1.667,0V9Z" transform="translate(-21.922 -9)"/><path class="b" d="M44.367,9v1.667a.833.833,0,1,1-1.667,0V9Z" transform="translate(-24.367 -9)"/><path class="b" d="M37.037,9v1.667a.833.833,0,1,1-1.667,0V9Z" transform="translate(-23.145 -9)"/></g><path class="i" d="M30.525,17.52A6.771,6.771,0,1,0,37.292,24.3,6.771,6.771,0,0,0,30.525,17.52ZM27.767,20l1.375,3.2-3.425-.6a5,5,0,0,1,2.05-2.6ZM30.525,29.4a5.111,5.111,0,0,1-5.108-5.15c.2.034,4.634.825,4.833.825a1,1,0,0,0,.917-1.392L29.3,19.345A5.1,5.1,0,1,1,30.525,29.4Z" transform="translate(-1.625 -1.92)"/><path class="i" d="M38.958,40.667H20.833a.833.833,0,0,1,0-1.667H38.958a.833.833,0,0,1,0,1.667Z" transform="translate(-1 -5.5)"/><path class="i" d="M38.958,46.167H20.833a.833.833,0,1,1,0-1.667H38.958a.833.833,0,0,1,0,1.667Z" transform="translate(-1 -6.417)"/><path class="i" d="M38.958,51.667H20.833a.833.833,0,1,1,0-1.667H38.958a.833.833,0,0,1,0,1.667Z" transform="translate(-1 -7.333)"/><path class="i" d="M41.5,7.667H39V6.833a.833.833,0,1,0-1.667,0v.833H32.892V6.833a.833.833,0,1,0-1.667,0v.833h-4.45V6.833a.833.833,0,1,0-1.667,0v.833H20.667V6.833a.833.833,0,1,0-1.667,0v.833H16.5a2.507,2.507,0,0,0-2.5,2.5V46.833a2.507,2.507,0,0,0,2.5,2.5h25a2.507,2.507,0,0,0,2.5-2.5V10.167A2.507,2.507,0,0,0,41.5,7.667Zm.833,39.167a.836.836,0,0,1-.833.833h-25a.836.836,0,0,1-.833-.833V10.167a.836.836,0,0,1,.833-.833H19v.833a.833.833,0,1,0,1.667,0V9.333h4.442v.833a.833.833,0,1,0,1.667,0V9.333h4.45v.833a.833.833,0,1,0,1.667,0V9.333h4.442v.833a.833.833,0,1,0,1.667,0V9.333h2.5a.836.836,0,0,1,.833.833Z" transform="translate(0)"/></g></svg>