<svg xmlns="http://www.w3.org/2000/svg" width="39.294" height="39.294" viewBox="0 0 39.294 39.294"><defs><style>.a{fill:#fcfcfc;}</style></defs><path class="a" d="M19.647,0A19.647,19.647,0,1,0,39.294,19.647,19.647,19.647,0,0,0,19.647,0Zm9.785,13.7a8.3,8.3,0,0,1-1.683,1.848.719.719,0,0,0-.259.561v.065a11.783,11.783,0,0,1-.76,4.1,12.008,12.008,0,0,1-2.236,3.748,11.046,11.046,0,0,1-4.847,3.2,12.124,12.124,0,0,1-3.81.592A11.632,11.632,0,0,1,10,26.245a.336.336,0,0,1-.162-.373.323.323,0,0,1,.315-.243h.491A7.836,7.836,0,0,0,15.02,24.3a4.253,4.253,0,0,1-3.361-2.888.222.222,0,0,1,.259-.287,3.9,3.9,0,0,0,.713.067h.09a4.245,4.245,0,0,1-2.474-3.906.222.222,0,0,1,.328-.194,3.733,3.733,0,0,0,.967.375,4.245,4.245,0,0,1-.685-5.147.222.222,0,0,1,.365-.028,11.116,11.116,0,0,0,7.629,4.077h.021a.16.16,0,0,0,.155-.173,4.5,4.5,0,0,1,.1-1.551,4.113,4.113,0,0,1,2.766-2.957,4.547,4.547,0,0,1,1.342-.207,4.229,4.229,0,0,1,2.8,1.057.548.548,0,0,0,.365.14.556.556,0,0,0,.129-.018,7.833,7.833,0,0,0,2.068-.853.22.22,0,0,1,.323.259,4.2,4.2,0,0,1-1.114,1.776,7.6,7.6,0,0,0,1.355-.458.222.222,0,0,1,.271.318Z"/></svg>