<svg xmlns="http://www.w3.org/2000/svg" width="39.294" height="39.294" viewBox="0 0 39.294 39.294"><defs><style>.a{fill:#fcfcfc;}</style></defs><path class="a" d="M66.91,61.44,73.039,65.2,66.91,68.97Z" transform="translate(-49.613 -45.557)"/><path class="a" d="M19.647,0A19.647,19.647,0,1,0,39.294,19.647,19.647,19.647,0,0,0,19.647,0ZM29.01,24.375a3.5,3.5,0,0,1-2.89,2.109,61.221,61.221,0,0,1-12.946,0,3.5,3.5,0,0,1-2.89-2.109,24.543,24.543,0,0,1,0-9.454,3.473,3.473,0,0,1,2.9-2.109,61.221,61.221,0,0,1,12.946,0,3.491,3.491,0,0,1,2.89,2.109,24.543,24.543,0,0,1-.01,9.454Z"/></svg>